{"title":"Jug.Face.2013 WEBRip XViD juggs","uid":8668519,"size":740584617,"categoryP":"video","categoryS":"movies","magnet":"?xt=urn:btih:cb6547663c1caeb94497e983dd8f2c524748aff9&amp;dn=Jug.Face.2013+WEBRip+XViD+juggs&amp;tr=udp%3A%2F%2Ftracker.openbittorrent.com%3A80&amp;tr=udp%3A%2F%2Fopen.demonii.com%3A1337&amp;tr=udp%3A%2F%2Ftracker.coppersurfer.tk%3A6969&amp;tr=udp%3A%2F%2Fexodus.desync.com%3A6969","seeders":4,"leechers":2,"uploader":"juggs99","files":3,"time":1373454008,"description":"Source : PHD(Thanks)\n &lt;a href=&quot;\nhttp://www.imdb.com/title/tt2620736/&quot; rel=&quot;nofollow&quot; target=&quot;_NEW&quot;&gt;\nhttp://www.imdb.com/title/tt2620736/&lt;/a&gt;\n\nFormat                                   : AVI\nFormat/Info                              : Audio Video Interleave\nFile size                                : 696 MiB\nDuration                                 : 1h 21mn\nOverall bit rate                         : 1 197 Kbps\nWriting library                          : VirtualDub build 32842/release\n\nVideo\nID                                       : 0\nFormat                                   : MPEG-4 Visual\nFormat profile                           : Advanced Simple@L5\nFormat settings, BVOP                    : 2\nFormat settings, QPel                    : No\nFormat settings, GMC                     : No warppoints\nFormat settings, Matrix                  : Default (H.263)\nMuxing mode                              : Packed bitstream\nCodec ID                                 : XVID\nCodec ID/Hint                            : XviD\nDuration                                 : 1h 21mn\nBit rate                                 : 1 060 Kbps\nWidth                                    : 640 pixels\nHeight                                   : 272 pixels\nDisplay aspect ratio                     : 2.35:1\nFrame rate                               : 23.976 fps\nColor space                              : YUV\nChroma subsampling                       : 4:2:0\nBit depth                                : 8 bits\nScan type                                : Progressive\nCompression mode                         : Lossy\nBits/(Pixel*Frame)                       : 0.254\nStream size                              : 616 MiB (89%)\nWriting library                          : XviD 64\n\nAudio\nID                                       : 1\nFormat                                   : MPEG Audio\nFormat version                           : Version 1\nFormat profile                           : Layer 3\nCodec ID                                 : 55\nCodec ID/Hint                            : MP3\nDuration                                 : 1h 21mn\nBit rate mode                            : Constant\nBit rate                                 : 128 Kbps\nChannel(s)                               : 2 channels\nSampling rate                            : 48.0 KHz\nCompression mode                         : Lossy\nStream size                              : 74.4 MiB (11%)\nAlignment                                : Split accross interleaves\nInterleave, duration                     : 42 ms (1.00 video frame)\nInterleave, preload duration             : 500 ms\nWriting library                          : LAME3.99r\n &lt;a href=&quot;\nhttp://img17.imageshack.us/img17/9140/ysuu.png&quot; rel=&quot;nofollow&quot; target=&quot;_NEW&quot;&gt;\nhttp://img17.imageshack.us/img17/9140/ysuu.png&lt;/a&gt; &lt;a href=&quot;\nhttp://img585.imageshack.us/img585/407/l85.png&quot; rel=&quot;nofollow&quot; target=&quot;_NEW&quot;&gt;\nhttp://img585.imageshack.us/img585/407/l85.png&lt;/a&gt; &lt;a href=&quot;\nhttp://img259.imageshack.us/img259/730/mvmd.png&quot; rel=&quot;nofollow&quot; target=&quot;_NEW&quot;&gt;\nhttp://img259.imageshack.us/img259/730/mvmd.png&lt;/a&gt; &lt;a href=&quot;\nhttp://img18.imageshack.us/img18/7941/hlon.png&quot; rel=&quot;nofollow&quot; target=&quot;_NEW&quot;&gt;\nhttp://img18.imageshack.us/img18/7941/hlon.png&lt;/a&gt;","torrent":{"xt":"urn:btih:cb6547663c1caeb94497e983dd8f2c524748aff9","amp;dn":"Jug.Face.2013+WEBRip+XViD+juggs","amp;tr":["udp%3A%2F%2Ftracker.openbittorrent.com%3A80","udp%3A%2F%2Fopen.demonii.com%3A1337","udp%3A%2F%2Ftracker.coppersurfer.tk%3A6969","udp%3A%2F%2Fexodus.desync.com%3A6969"],"infoHash":"cb6547663c1caeb94497e983dd8f2c524748aff9","infoHashBuffer":{"type":"Buffer","data":[203,101,71,102,60,28,174,185,68,151,233,131,221,143,44,82,71,72,175,249]},"announce":[],"urlList":[]}}